HIERARCHY
ROOT Hips
{
	OFFSET -0.087744 88.518600 4.106688
	CHANNELS 6 Xposition Yposition Zposition Zrotation Yrotation Xrotation 
	JOINT Spine
	{
		OFFSET 0.000000 8.814246 -2.080107
		CHANNELS 3 Zrotation Yrotation Xrotation
		JOINT Spine1
		{
			OFFSET -0.000000 8.844141 -0.000000
			CHANNELS 3 Zrotation Yrotation Xrotation
			JOINT Spine2
			{
				OFFSET 0.000000 11.682268 0.000000
				CHANNELS 3 Zrotation Yrotation Xrotation
				JOINT Spine3
				{
					OFFSET 0.000000 11.746700 0.000000
					CHANNELS 3 Zrotation Yrotation Xrotation
					JOINT Neck
					{
						OFFSET 0.000000 17.658264 -0.000000
						CHANNELS 3 Zrotation Yrotation Xrotation
						JOINT Neck1
						{
							OFFSET -0.000000 5.101515 -0.000000
							CHANNELS 3 Zrotation Yrotation Xrotation
							JOINT Head
							{
								OFFSET -0.000000 5.101515 -0.000000
								CHANNELS 3 Zrotation Yrotation Xrotation
								JOINT HeadEnd
								{
									OFFSET 0.000000 11.655085 0.000000
									CHANNELS 3 Zrotation Yrotation Xrotation
									End Site
									{
										OFFSET 0.000000 0.000000 0.000000
									}
								}
							}
						}
					}
					JOINT RightShoulder
					{
						OFFSET -2.625389 11.175210 0.000000
						CHANNELS 3 Zrotation Yrotation Xrotation
						JOINT RightArm
						{
							OFFSET 0.000000 10.434715 -0.000000
							CHANNELS 3 Zrotation Yrotation Xrotation
							JOINT RightForeArm
							{
								OFFSET -0.000000 29.628420 0.000000
								CHANNELS 3 Zrotation Yrotation Xrotation
								JOINT RightHand
								{
									OFFSET -0.000000 22.857611 0.000000
									CHANNELS 3 Zrotation Yrotation Xrotation
									JOINT RightHandThumb1
									{
										OFFSET -2.867323 3.959563 2.944291
										CHANNELS 3 Zrotation Yrotation Xrotation
										JOINT RightHandThumb2
										{
											OFFSET -0.000000 3.350399 0.000000
											CHANNELS 3 Zrotation Yrotation Xrotation
											JOINT RightHandThumb3
											{
												OFFSET 0.000000 3.756509 -0.000000
												CHANNELS 3 Zrotation Yrotation Xrotation
												JOINT RightHandThumb4
												{
													OFFSET -0.000000 3.147345 0.000000
													CHANNELS 3 Zrotation Yrotation Xrotation
													End Site
													{
														OFFSET 0.000000 0.000000 0.000000
													}
												}
											}
										}
									}
									JOINT RightHandIndex1
									{
										OFFSET -0.086752 10.030893 2.345280
										CHANNELS 3 Zrotation Yrotation Xrotation
										JOINT RightHandIndex2
										{
											OFFSET 0.000000 4.061090 -0.000000
											CHANNELS 3 Zrotation Yrotation Xrotation
											JOINT RightHandIndex3
											{
												OFFSET 0.000000 3.248873 -0.000000
												CHANNELS 3 Zrotation Yrotation Xrotation
												JOINT RightHandIndex4
												{
													OFFSET 0.000000 2.639709 -0.000000
													CHANNELS 3 Zrotation Yrotation Xrotation
													End Site
													{
														OFFSET 0.000000 0.000000 0.000000
													}
												}
											}
										}
									}
									JOINT RightHandMiddle1
									{
										OFFSET 0.104102 9.502952 0.006768
										CHANNELS 3 Zrotation Yrotation Xrotation
										JOINT RightHandMiddle2
										{
											OFFSET 0.000000 4.568727 -0.000000
											CHANNELS 3 Zrotation Yrotation Xrotation
											JOINT RightHandMiddle3
											{
												OFFSET -0.000000 3.654981 0.000000
												CHANNELS 3 Zrotation Yrotation Xrotation
												JOINT RightHandMiddle4
												{
													OFFSET 0.000000 2.741236 0.000000
													CHANNELS 3 Zrotation Yrotation Xrotation
													End Site
													{
														OFFSET 0.000000 0.000000 0.000000
													}
												}
											}
										}
									}
									JOINT RightHandRing1
									{
										OFFSET 0.086752 8.921708 -2.267442
										CHANNELS 3 Zrotation Yrotation Xrotation
										JOINT RightHandRing2
										{
											OFFSET 0.000000 4.061090 -0.000000
											CHANNELS 3 Zrotation Yrotation Xrotation
											JOINT RightHandRing3
											{
												OFFSET -0.000000 3.654981 0.000000
												CHANNELS 3 Zrotation Yrotation Xrotation
												JOINT RightHandRing4
												{
													OFFSET 0.000000 2.741236 -0.000000
													CHANNELS 3 Zrotation Yrotation Xrotation
													End Site
													{
														OFFSET 0.000000 0.000000 0.000000
													}
												}
											}
										}
									}
									JOINT RightHandPinky1
									{
										OFFSET -0.173504 7.976997 -4.467199
										CHANNELS 3 Zrotation Yrotation Xrotation
										JOINT RightHandPinky2
										{
											OFFSET 0.000000 3.350399 0.000000
											CHANNELS 3 Zrotation Yrotation Xrotation
											JOINT RightHandPinky3
											{
												OFFSET 0.000000 2.842763 -0.000000
												CHANNELS 3 Zrotation Yrotation Xrotation
												JOINT RightHandPinky4
												{
													OFFSET -0.000000 2.639709 -0.000000
													CHANNELS 3 Zrotation Yrotation Xrotation
													End Site
													{
														OFFSET 0.000000 0.000000 0.000000
													}
												}
											}
										}
									}
									JOINT RightForeArmEnd
									{
										OFFSET 0.000000 0.000000 0.000000
										CHANNELS 3 Zrotation Yrotation Xrotation
										End Site
										{
											OFFSET 0.000000 0.000000 0.000000
										}
									}
								}
								JOINT RightArmEnd
								{
									OFFSET 0.000000 0.000000 0.000000
									CHANNELS 3 Zrotation Yrotation Xrotation
									End Site
									{
										OFFSET 0.000000 0.000000 0.000000
									}
								}
							}
						}
					}
					JOINT LeftShoulder
					{
						OFFSET 2.625389 11.175210 -0.000000
						CHANNELS 3 Zrotation Yrotation Xrotation
						JOINT LeftArm
						{
							OFFSET -0.000000 10.813635 0.000000
							CHANNELS 3 Zrotation Yrotation Xrotation
							JOINT LeftForeArm
							{
								OFFSET -0.000000 28.724781 0.000000
								CHANNELS 3 Zrotation Yrotation Xrotation
								JOINT LeftHand
								{
									OFFSET 0.644384 25.716167 -0.328871
									CHANNELS 3 Zrotation Yrotation Xrotation
									JOINT LeftHandThumb1
									{
										OFFSET 2.867323 3.959563 2.944291
										CHANNELS 3 Zrotation Yrotation Xrotation
										JOINT LeftHandThumb2
										{
											OFFSET -0.000000 3.350399 0.000000
											CHANNELS 3 Zrotation Yrotation Xrotation
											JOINT LeftHandThumb3
											{
												OFFSET -0.000000 3.756509 -0.000000
												CHANNELS 3 Zrotation Yrotation Xrotation
												JOINT LeftHandThumb4
												{
													OFFSET 0.000000 3.100000 -0.000000
													CHANNELS 3 Zrotation Yrotation Xrotation
													End Site
													{
														OFFSET 0.000000 0.000000 0.000000
													}
												}
											}
										}
									}
									JOINT LeftHandIndex1
									{
										OFFSET 0.086752 10.030893 2.345280
										CHANNELS 3 Zrotation Yrotation Xrotation
										JOINT LeftHandIndex2
										{
											OFFSET -0.000000 4.061090 0.000000
											CHANNELS 3 Zrotation Yrotation Xrotation
											JOINT LeftHandIndex3
											{
												OFFSET 0.000000 3.248873 0.000000
												CHANNELS 3 Zrotation Yrotation Xrotation
												JOINT LeftHandIndex4
												{
													OFFSET 0.000000 2.639709 -0.000000
													CHANNELS 3 Zrotation Yrotation Xrotation
													End Site
													{
														OFFSET 0.000000 0.000000 0.000000
													}
												}
											}
										}
									}
									JOINT LeftHandMiddle1
									{
										OFFSET -0.104102 9.502952 0.006768
										CHANNELS 3 Zrotation Yrotation Xrotation
										JOINT LeftHandMiddle2
										{
											OFFSET 0.000000 4.568727 -0.000000
											CHANNELS 3 Zrotation Yrotation Xrotation
											JOINT LeftHandMiddle3
											{
												OFFSET 0.000000 3.654981 0.000000
												CHANNELS 3 Zrotation Yrotation Xrotation
												JOINT LeftHandMiddle4
												{
													OFFSET -0.000000 2.741236 -0.000000
													CHANNELS 3 Zrotation Yrotation Xrotation
													End Site
													{
														OFFSET 0.000000 0.000000 0.000000
													}
												}
											}
										}
									}
									JOINT LeftHandRing1
									{
										OFFSET -0.086752 8.921708 -2.267442
										CHANNELS 3 Zrotation Yrotation Xrotation
										JOINT LeftHandRing2
										{
											OFFSET -0.000000 4.061090 -0.000000
											CHANNELS 3 Zrotation Yrotation Xrotation
											JOINT LeftHandRing3
											{
												OFFSET 0.000000 3.654981 0.000000
												CHANNELS 3 Zrotation Yrotation Xrotation
												JOINT LeftHandRing4
												{
													OFFSET -0.000000 2.741236 -0.000000
													CHANNELS 3 Zrotation Yrotation Xrotation
													End Site
													{
														OFFSET 0.000000 0.000000 0.000000
													}
												}
											}
										}
									}
									JOINT LeftHandPinky1
									{
										OFFSET 0.173504 7.976997 -4.467199
										CHANNELS 3 Zrotation Yrotation Xrotation
										JOINT LeftHandPinky2
										{
											OFFSET 0.000000 3.350399 0.000000
											CHANNELS 3 Zrotation Yrotation Xrotation
											JOINT LeftHandPinky3
											{
												OFFSET -0.000000 2.842763 -0.000000
												CHANNELS 3 Zrotation Yrotation Xrotation
												JOINT LeftHandPinky4
												{
													OFFSET -0.000000 2.639709 -0.000000
													CHANNELS 3 Zrotation Yrotation Xrotation
													End Site
													{
														OFFSET 0.000000 0.000000 0.000000
													}
												}
											}
										}
									}
									JOINT LeftForeArmEnd
									{
										OFFSET 0.000000 0.000000 0.000000
										CHANNELS 3 Zrotation Yrotation Xrotation
										End Site
										{
											OFFSET 0.000000 0.000000 0.000000
										}
									}
								}
								JOINT LeftArmEnd
								{
									OFFSET 0.000000 0.000000 0.000000
									CHANNELS 3 Zrotation Yrotation Xrotation
									End Site
									{
										OFFSET 0.000000 0.000000 0.000000
									}
								}
							}
						}
					}
				}
			}
		}
	}
	JOINT RightUpLeg
	{
		OFFSET -11.289943 0.000000 0.000000
		CHANNELS 3 Zrotation Yrotation Xrotation
		JOINT RightLeg
		{
			OFFSET -0.000000 -38.200325 -0.000000
			CHANNELS 3 Zrotation Yrotation Xrotation
			JOINT RightFoot
			{
				OFFSET -0.000000 -39.900856 -0.000000
				CHANNELS 3 Zrotation Yrotation Xrotation
				JOINT RightToeBase
				{
					OFFSET 0.000000 0.000000 15.261641
					CHANNELS 3 Zrotation Yrotation Xrotation
					JOINT RightToeBaseEnd
					{
						OFFSET 0.000000 0.000000 7.370709
						CHANNELS 3 Zrotation Yrotation Xrotation
						End Site
						{
							OFFSET 0.000000 0.000000 0.000000
						}
					}
				}
				JOINT RightLegEnd
				{
					OFFSET 0.000000 0.000000 0.000000
					CHANNELS 3 Zrotation Yrotation Xrotation
					End Site
					{
						OFFSET 0.000000 0.000000 0.000000
					}
				}
			}
			JOINT RightUpLegEnd
			{
				OFFSET 0.000000 0.000000 0.000000
				CHANNELS 3 Zrotation Yrotation Xrotation
				End Site
				{
					OFFSET 0.000000 0.000000 0.000000
				}
			}
		}
	}
	JOINT LeftUpLeg
	{
		OFFSET 11.315661 0.000000 -0.000000
		CHANNELS 3 Zrotation Yrotation Xrotation
		JOINT LeftLeg
		{
			OFFSET 0.000000 -38.200325 0.000000
			CHANNELS 3 Zrotation Yrotation Xrotation
			JOINT LeftFoot
			{
				OFFSET 0.000000 -39.900856 -0.000000
				CHANNELS 3 Zrotation Yrotation Xrotation
				JOINT LeftToeBase
				{
					OFFSET 0.000000 0.000000 15.261641
					CHANNELS 3 Zrotation Yrotation Xrotation
					JOINT LeftToeBaseEnd
					{
						OFFSET -0.000000 0.000000 7.539996
						CHANNELS 3 Zrotation Yrotation Xrotation
						End Site
						{
							OFFSET 0.000000 0.000000 0.000000
						}
					}
				}
				JOINT LeftLegEnd
				{
					OFFSET 0.000000 0.000000 0.000000
					CHANNELS 3 Zrotation Yrotation Xrotation
					End Site
					{
						OFFSET 0.000000 0.000000 0.000000
					}
				}
			}
			JOINT LeftUpLegEnd
			{
				OFFSET 0.000000 0.000000 0.000000
				CHANNELS 3 Zrotation Yrotation Xrotation
				End Site
				{
					OFFSET 0.000000 0.000000 0.000000
				}
			}
		}
	}
}
MOTION
Frames: 4
Frame Time: 0.016667
-0.087744 88.518600 4.106688 0.068919 0.010845 -8.942659 0.442413 -0.081069 6.970063 -1.393128 0.231170 0.120594 0.170773 -1.686916 3.633183 0.138037 -0.360124 1.632820 2.669741 1.360534 7.336633 0.504304 2.812674 -2.138667 -0.849185 -0.825950 -18.014040 0.000000 0.000000 0.000000 93.328857 -0.532019 9.249256 66.106537 -37.119999 4.142115 -0.118903 9.345549 21.275049 6.844851 17.264309 -6.195918 11.236529 -1.888869 39.607235 0.000000 0.000000 -27.360001 0.000000 0.000000 -18.999998 0.000000 0.000000 0.000000 16.490267 0.000000 -10.411167 11.543185 0.000000 0.000000 11.543185 0.000000 0.000000 0.000000 0.000000 0.000000 15.680838 0.000000 -10.611974 10.976586 0.000000 0.000000 10.976586 0.000000 0.000000 0.000000 0.000000 0.000000 17.926441 -0.000000 -9.075776 12.548511 0.000000 0.000000 12.548511 0.000000 0.000000 0.000000 0.000000 0.000000 19.209045 0.000000 -9.362014 13.446335 0.000000 0.000000 13.446335 0.000000 0.000000 0.000000 0.000000 0.000000 0.000000 0.000000 0.000000 0.000000 0.000000 0.000000 -92.264565 0.184447 4.508586 -67.528290 31.026754 -4.429007 -0.724142 -2.563973 37.835682 -1.518325 -21.259672 -14.755241 -10.637670 1.840800 39.870987 0.000000 0.000000 -25.919998 0.000000 0.000000 -18.000004 0.000000 0.000000 0.000000 -13.737988 0.000000 -10.271245 -9.616590 0.000000 0.000000 -9.616590 0.000000 0.000000 0.000000 0.000000 0.000000 -13.566373 0.000000 -10.909574 -9.496462 0.000000 0.000000 -9.496462 0.000000 0.000000 0.000000 0.000000 0.000000 -16.906538 -0.000000 -11.246544 -11.834577 0.000000 0.000000 -11.834577 0.000000 0.000000 0.000000 0.000000 0.000000 -19.165680 -0.000000 -11.938169 -13.415976 0.000000 0.000000 -13.415976 0.000000 0.000000 0.000000 0.000000 0.000000 0.000000 0.000000 0.000000 0.000000 0.000000 0.000000 -1.938379 -12.547268 14.781528 -0.051716 -0.791252 3.432337 -0.790947 -7.985100 17.498075 -0.970069 1.135202 -17.740036 0.000000 0.000000 0.000000 0.000000 0.000000 0.000000 0.000000 0.000000 0.000000 -1.007299 -7.770874 9.427107 0.095226 0.552794 9.721728 1.664590 4.975721 15.629977 0.746320 -0.643483 -19.338871 0.000000 0.000000 0.000000 0.000000 0.000000 0.000000 0.000000 0.000000 0.000000 
-0.089103 88.479111 3.941621 -0.402765 -0.129868 -9.084723 1.483982 -0.214423 6.297190 -1.429558 0.265118 1.419522 0.209237 -1.402938 1.993351 -0.962080 -0.349419 3.540989 3.133187 0.594191 6.143483 1.501227 2.353203 -1.840258 -0.514543 -1.375015 -17.225740 0.000000 0.000000 0.000000 92.838036 -0.554098 9.756183 67.465492 -35.503510 4.711793 0.008710 11.175928 20.219172 5.738654 15.985866 -4.887947 10.990317 -1.866663 39.727459 -0.000000 0.000027 -26.975336 0.000018 0.000035 -18.618845 0.000009 -0.000001 -0.000028 15.801314 -0.019650 -8.676691 11.202849 -0.037541 -0.135653 11.382791 -0.011805 -0.148797 -0.000022 0.000023 -0.000022 15.467562 -0.000585 -9.513300 10.775866 -0.012967 -0.064164 10.829051 -0.001873 -0.062739 0.000013 0.000043 0.000002 17.719563 -0.029069 -8.559956 12.165588 0.026414 0.117483 12.182635 -0.004429 0.096089 -0.000008 0.000923 -0.000000 18.284081 -0.109346 -9.263572 12.826072 0.011308 0.522930 12.613125 -0.036546 0.430930 -0.000217 -0.000005 0.000019 0.000000 0.000000 0.000000 0.000000 0.000000 0.000000 -90.122574 0.045249 6.421496 -68.976448 28.565407 -4.391882 -0.935307 -4.414225 37.851845 0.067987 -16.824284 -16.256031 -10.273047 1.770424 40.051266 -0.000002 0.000026 -24.923124 -0.000031 -0.000023 -17.413996 0.000008 -0.000003 0.000575 -13.492038 0.046359 -8.334147 -9.403913 -0.042062 -0.016732 -9.755600 -0.024230 0.010008 0.000017 0.000333 0.000009 -13.392778 0.022932 -9.269801 -9.289518 -0.019323 0.008491 -9.186896 -0.002900 0.014738 0.001290 -0.000043 0.000030 -16.721476 0.003653 -9.719480 -11.446470 0.029178 -0.070029 -11.357054 0.005438 -0.045895 0.000241 0.000009 0.000007 -18.364035 -0.013330 -10.572062 -12.779211 0.071865 -0.170023 -12.694034 -0.000251 -0.205166 -0.000079 -0.000004 -0.000038 0.000000 0.000000 0.000000 0.000000 0.000000 0.000000 -2.283656 -11.629461 14.671080 -0.079149 -0.769923 4.354000 -1.091226 -9.424468 16.959763 -1.104008 1.100554 -16.966930 0.000000 0.000000 0.000000 0.000000 0.000000 0.000000 0.000000 0.000000 0.000000 -0.082860 -5.596535 9.951181 0.092752 0.472809 10.086951 1.836668 3.159382 15.543947 0.519022 -0.446323 -20.090509 0.000000 0.000000 0.000000 0.000000 0.000000 0.000000 0.000000 0.000000 0.000000 
-0.074216 88.451744 3.847282 -0.318449 -0.035346 -8.935504 1.359933 -0.221279 6.294563 -1.491533 0.265345 1.578378 0.241291 -1.515167 1.830068 -0.906401 -0.411857 3.645713 3.306667 0.371038 6.028992 1.531191 2.238048 -1.772269 -0.478876 -1.343305 -17.245150 0.000000 0.000000 0.000000 92.579750 -0.526576 9.850510 67.233437 -35.430637 5.136140 -0.030704 11.303618 20.506975 5.585303 15.184220 -4.799963 10.976564 -1.860143 39.739788 0.000000 0.000039 -26.948534 0.000022 0.000031 -18.612747 0.000013 0.000003 -0.000037 15.724300 -0.018467 -8.468156 11.243213 -0.025336 -0.175867 11.435150 0.001441 -0.183606 -0.000006 0.000036 -0.000018 15.384232 -0.000923 -9.317497 10.798026 -0.010077 -0.076403 10.835553 0.001734 -0.070240 0.000013 0.000037 -0.000007 17.528669 -0.033069 -8.405284 12.077989 0.021676 0.122090 12.112171 -0.007422 0.101787 -0.000015 0.001121 -0.000004 18.035198 -0.118230 -9.201889 12.694336 -0.000742 0.532071 12.474005 -0.047648 0.446521 -0.000353 0.000002 0.000015 0.000000 0.000000 0.000000 0.000000 0.000000 0.000000 -89.715279 -0.022074 6.549355 -69.323708 28.316635 -4.272078 -0.787567 -4.218483 37.843510 0.349996 -15.904385 -16.057623 -10.201677 1.749275 40.085575 0.000005 0.000029 -24.781240 -0.000037 -0.000017 -17.315428 -0.000165 0.000002 0.000363 -13.099402 0.051698 -8.059163 -9.451503 -0.038160 -0.019434 -9.791160 -0.019240 0.003995 0.000024 0.000414 0.000010 -13.018256 0.024725 -9.087529 -9.332415 -0.017986 0.005310 -9.215294 -0.001754 0.011550 0.001456 -0.000041 0.000010 -16.289930 0.005032 -9.700030 -11.409809 0.026761 -0.068267 -11.324621 0.003334 -0.044820 0.000301 0.000013 0.000007 -17.889708 -0.010660 -10.658275 -12.682998 0.058373 -0.171117 -12.579475 -0.010383 -0.200944 -0.000040 0.000007 -0.000054 0.000000 0.000000 0.000000 0.000000 0.000000 0.000000 -2.405507 -11.850299 14.275212 -0.079188 -0.765695 4.568800 -0.927027 -9.508121 16.919800 -1.122849 1.110919 -16.936710 0.000000 0.000000 0.000000 0.000000 0.000000 0.000000 0.000000 0.000000 0.000000 -0.138076 -5.503253 9.465067 0.092917 0.453271 10.365967 1.882019 3.018021 15.628895 0.501570 -0.443964 -20.095516 0.000000 0.000000 0.000000 0.000000 0.000000 0.000000 0.000000 0.000000 0.000000 
-0.079610 88.426376 3.749486 -0.232415 -0.000734 -8.794620 1.260201 -0.211923 6.308983 -1.547648 0.275723 1.724818 0.248103 -1.558802 1.686108 -0.916463 -0.442529 3.764163 3.379146 0.193616 5.886549 1.555939 2.086053 -1.791744 -0.432823 -1.334525 -17.303396 0.000000 0.000000 0.000000 92.317642 -0.504248 9.965521 67.047501 -35.306808 5.477955 -0.041187 11.592670 20.880732 5.800830 14.415549 -4.662826 10.964309 -1.848718 39.757889 0.000002 0.000037 -26.933216 0.000022 0.000032 -18.604771 0.000012 0.000003 -0.000036 15.680349 -0.018712 -8.242364 11.342322 -0.009594 -0.221244 11.537214 0.018134 -0.222597 -0.000006 0.000036 -0.000018 15.323954 -0.001819 -9.104467 10.875902 -0.005156 -0.092029 10.901186 0.006942 -0.081876 0.000014 0.000041 -0.000005 17.380793 -0.033944 -8.247277 12.040874 0.014620 0.130514 12.080567 -0.012168 0.110336 -0.000013 0.001243 -0.000002 17.850616 -0.118166 -9.141302 12.596648 -0.019787 0.554214 12.369460 -0.064526 0.470892 -0.000445 0.000002 0.000008 0.000000 0.000000 0.000000 0.000000 0.000000 0.000000 -89.358154 -0.087359 6.615865 -69.298782 28.062798 -3.952630 -0.684379 -4.172014 37.950405 0.636738 -15.085640 -15.808849 -10.110978 1.723981 40.137276 0.000004 0.000029 -24.599958 -0.000032 -0.000019 -17.182476 -0.000359 -0.000000 0.000437 -12.644839 0.053102 -7.785045 -9.545046 -0.031366 -0.014192 -9.878178 -0.011720 0.006054 0.000021 0.000558 0.000012 -12.618154 0.024377 -8.861243 -9.409656 -0.015643 0.005988 -9.293348 0.000380 0.011395 0.001591 -0.000041 -0.000001 -15.879409 0.008264 -9.601140 -11.437314 0.021293 -0.075283 -11.348787 -0.000700 -0.048939 0.000382 0.000014 0.000007 -17.493999 -0.002241 -10.630727 -12.652064 0.039667 -0.195312 -12.542022 -0.024328 -0.212792 0.000030 0.000006 -0.000054 0.000000 0.000000 0.000000 0.000000 0.000000 0.000000 -2.508612 -11.936037 13.855830 -0.080297 -0.759005 4.875618 -0.776759 -9.577519 16.857183 -1.136109 1.115543 -16.968712 0.000000 0.000000 0.000000 0.000000 0.000000 0.000000 0.000000 0.000000 0.000000 -0.190410 -5.449517 9.006557 0.094434 0.441272 10.655488 1.922152 2.905057 15.701431 0.498176 -0.433862 -20.143721 0.000000 0.000000 0.000000 0.000000 0.000000 0.000000 0.000000 0.000000 0.000000 
